<svg xmlns="http://www.w3.org/2000/svg" xmlns:xlink="http://www.w3.org/1999/xlink" width="38" height="532" xmlns:v="https://vecta.io/nano"><style><![CDATA[.B{fill:#fff}.C{fill:#222221}.D{opacity:.7}.E{opacity:.05}.F{opacity:.07}]]></style><defs><clipPath id="A"><path d="M0 0h38v532H0z"/></clipPath><path id="B" d="M19 114.004h0c-10.493 0-19-8.507-19-19h0c0-10.493 8.507-19 19-19h0c10.493 0 19 8.507 19 19h0c0 10.493-8.507 19-19 19z"/><path id="C" d="M12.162 445.372h1.6v1.6c0 .651.348 1.253.912 1.579s1.259.326 1.824 0 .912-.928.912-1.579v-1.6H20.6v1.6c0 .651.348 1.253.912 1.579s1.259.326 1.824 0 .912-.928.912-1.579v-1.6h1.6v-10.028H12.162z"/><path id="D" d="M26.121 426.123a.9.9 0 0 0-.456-.123.91.91 0 0 0-.789.456l-1.367 2.377a6.84 6.84 0 0 0-9 0l-1.388-2.378a.91.91 0 0 0-.789-.456.9.9 0 0 0-.456.123.91.91 0 0 0-.335 1.244l1.693 2.931a6.77 6.77 0 0 0-1.078 3.678H25.83a6.77 6.77 0 0 0-1.078-3.678l1.693-2.931a.91.91 0 0 0-.335-1.244zm-9.739 6.03c-.277 0-.526-.167-.632-.422s-.047-.55.148-.745.49-.254.745-.148.422.355.422.632c0 .378-.306.684-.684.684zm5.242 0c-.277 0-.526-.167-.632-.422s-.047-.55.148-.745.49-.254.745-.148.422.355.422.632c0 .378-.306.684-.684.684z"/><path id="E" d="M29.027 435.344c-.755 0-1.367.612-1.367 1.367v4.558a1.37 1.37 0 0 0 1.367 1.367 1.37 1.37 0 0 0 1.368-1.367v-4.558c0-.755-.612-1.367-1.367-1.367z"/><path id="F" d="M8.971 435.344c-.755 0-1.367.612-1.367 1.367v4.558a1.37 1.37 0 0 0 1.368 1.367 1.37 1.37 0 0 0 1.368-1.367v-4.558c0-.755-.612-1.367-1.367-1.367z"/><path id="G" d="M8.3 519.914c-.828.017-1.6-.414-2.02-1.129s-.419-1.599 0-2.314 1.192-1.146 2.02-1.129h3.5l4.48-7.645-1.314-2.236a2.3 2.3 0 0 1 1.964-3.496 2.3 2.3 0 0 1 2.005 1.172l.006.011.006-.01a2.3 2.3 0 1 1 3.969 2.326l-5.789 9.879h3.062l.27.271c.214.218.406.456.573.712l.181.3c.444.801.55 1.747.294 2.626l-.194.657H8.3z"/><path id="H" d="M8.3 519.452c-.662.016-1.281-.329-1.617-.9s-.336-1.279 0-1.851.955-.916 1.617-.9h3.76l4.75-8.105-1.45-2.466a1.84 1.84 0 1 1 3.176-1.86l.4.689.4-.688a1.84 1.84 0 0 1 3.21.001 1.84 1.84 0 0 1-.036 1.86l-6.186 10.571h3.673l.134.135c.193.196.365.411.515.642l.17.285a2.96 2.96 0 0 1 .248 2.26l-.1.328z"/><path id="I" d="M20.264 516.834a3.69 3.69 0 0 0-.458-.571H15.52l6.6-11.264a1.38 1.38 0 0 0-2.38-1.4l-.8 1.365-.8-1.366a1.38 1.38 0 0 0-2.406.001 1.38 1.38 0 0 0 .025 1.394l1.583 2.7-5.022 8.57H8.3c-.497-.013-.961.244-1.214.672s-.252.959 0 1.387.717.685 1.214.672h12.32a2.48 2.48 0 0 0-.2-1.894z"/><path id="J" d="M10.324 523.54a1.84 1.84 0 0 1-1.586-2.772l.552-.942.2-.04c.282-.059.57-.089.858-.09h.1a3.02 3.02 0 0 1 2.2 1.039l.219.249-.963 1.646a1.85 1.85 0 0 1-1.58.91z"/><path id="K" d="M10.444 520.155a3.8 3.8 0 0 0-.858.08l-.448.765a1.38 1.38 0 1 0 2.381 1.4l.8-1.359c-.472-.547-1.153-.869-1.875-.886h0z"/><path id="L" d="M27.426 524a2.31 2.31 0 0 1-1.986-1.137l-5.546-9.464-.016-.048c-.382-1.146-.31-2.395.2-3.49l1.536-2.63 4.343 7.412h3.745c.828-.017 1.6.414 2.02 1.129s.419 1.599 0 2.314-1.192 1.146-2.02 1.129h-1.069l.775 1.322a2.3 2.3 0 0 1-1.982 3.463z"/><path id="M" d="M27.426 523.539c-.654 0-1.26-.345-1.592-.909l-5.521-9.42-.016-.048c-.333-1.022-.265-2.132.191-3.106l1.119-1.915 4.083 6.956h4.01c.662-.016 1.281.329 1.617.9s.336 1.279 0 1.851-.955.916-1.617.9h-1.866l1.181 2.015a1.84 1.84 0 0 1-1.585 2.771z"/><path id="N" d="M29.699 515.562h-4.272l-3.816-6.511-.7 1.2c-.405.869-.466 1.859-.17 2.771l5.5 9.377a1.38 1.38 0 0 0 2.38-1.4l-1.587-2.708h2.672c.497.013.961-.244 1.214-.672s.252-.959 0-1.387-.717-.685-1.214-.672z"/></defs><g clip-path="url(#A)"><g class="D"><rect width="38" height="38" rx="19" y="152.001" class="C"/><path d="M33.565,163.622a3.8,3.8,0,0,0-2.688-2.7c-2.37-.64-11.877-.64-11.877-.64s-9.507,0-11.877.64a3.833,3.833,0,0,0-2.69,2.7,43.236,43.236,0,0,0,0,14.76,3.8,3.8,0,0,0,2.69,2.7c2.37.64,11.877.64,11.877.64s9.506,0,11.877-.64a3.825,3.825,0,0,0,2.688-2.71,43.236,43.236,0,0,0,0-14.76Z" class="B"/><path d="M15.882,175.53v-9.058L23.844,171Z" class="C"/></g><g class="D"><path d="M19 152h0a19 19 0 0 1-19-19h0a19 19 0 0 1 19-19h0a19 19 0 0 1 19 19h0a19 19 0 0 1-19 19z" class="C"/><path d="M8.893,139.372A11.79,11.79,0,0,0,27.04,128.865a8.42,8.42,0,0,0,2.069-2.154,8.25,8.25,0,0,1-2.382.655,4.159,4.159,0,0,0,1.823-2.3,8.06,8.06,0,0,1-2.633,1,4.15,4.15,0,0,0-7.068,3.8,11.76,11.76,0,0,1-8.549-4.347,4.174,4.174,0,0,0,1.283,5.555,4.133,4.133,0,0,1-1.88-.52,4.164,4.164,0,0,0,3.327,4.133,4.14,4.14,0,0,1-1.872.07,4.15,4.15,0,0,0,3.874,2.89,8.32,8.32,0,0,1-6.14,1.716Z" class="B"/></g><g class="D"><use xlink:href="#B" class="C"/><g class="B"><path d="M10.37 90.763h3.94v12.724h-3.94zm1.95-1.663a2.346 2.346 0 1 0-2.329-2.348A2.35 2.35 0 0 0 12.32 89.1zm8.28 7.707c0-1.788.823-2.854 2.4-2.854 1.448 0 2.144 1.023 2.144 2.854v6.68h3.92V95.43c0-3.408-1.932-5.056-4.63-5.056a4.435 4.435 0 0 0-3.834 2.1V90.76h-3.773v12.723H20.6z"/></g></g><g class="D"><path d="M19,0h0A19,19,0,0,1,38,19h0A19,19,0,0,1,19,38h0A19,19,0,0,1,0,19H0A19,19,0,0,1,19,0Z" class="C"/><path d="M16.1,30.473h4.632V18.9h3.233l.344-3.874H20.732V12.823c0-.914.184-1.275,1.07-1.275h2.507V7.528H21.1c-3.447,0-5,1.514-5,4.412v3.09H13.7v3.923h2.4Z" class="B"/></g><g class="D"><path d="M19 76.004h0c-10.493 0-19-8.507-19-19h0c0-10.493 8.507-19 19-19h0c10.493 0 19 8.507 19 19h0c0 10.493-8.507 19-19 19z" class="C"/><g class="B"><path d="M19 48.446l4.217.06a5.78 5.78 0 0 1 1.937.36 3.45 3.45 0 0 1 1.98 1.98 5.78 5.78 0 0 1 .36 1.937l.06 4.217-.06 4.216a5.78 5.78 0 0 1-.36 1.938 3.45 3.45 0 0 1-1.98 1.98 5.824 5.824 0 0 1-1.937.36l-4.217.06c-2.787 0-3.116-.01-4.216-.06a5.77 5.77 0 0 1-1.94-.359 3.477 3.477 0 0 1-1.98-1.98 5.825 5.825 0 0 1-.36-1.938L10.444 57l.06-4.217a5.76 5.76 0 0 1 .359-1.937 3.46 3.46 0 0 1 1.98-1.982 5.79 5.79 0 0 1 1.938-.36l4.219-.06m0-1.88l-4.3.063a7.67 7.67 0 0 0-2.533.485 5.33 5.33 0 0 0-3.05 3.052 7.64 7.64 0 0 0-.488 2.536L8.566 57l.063 4.3a7.64 7.64 0 0 0 .485 2.533 5.365 5.365 0 0 0 3.05 3.052 7.7 7.7 0 0 0 2.533.485l4.3.062 4.3-.062a7.69 7.69 0 0 0 2.533-.485 5.34 5.34 0 0 0 3.052-3.052 7.589 7.589 0 0 0 .485-2.533l.063-4.3-.063-4.3a7.617 7.617 0 0 0-.485-2.533 5.34 5.34 0 0 0-3.052-3.052 7.589 7.589 0 0 0-2.533-.485L19 46.564m0 5.08a5.363 5.363 0 1 0 3.789 1.569A5.36 5.36 0 0 0 19 51.644m0 8.836a3.484 3.484 0 1 1 2.459-1.019A3.48 3.48 0 0 1 19 60.479m6.822-9.049a1.255 1.255 0 1 1-.367-.885 1.252 1.252 0 0 1 .367.885"/></g></g><rect width="38" height="38" rx="19" fill="red" y="342.002"/><path d="M33.565 353.622a3.8 3.8 0 0 0-2.688-2.7c-2.37-.64-11.877-.64-11.877-.64s-9.507 0-11.877.64c-1.312.359-2.336 1.386-2.69 2.7-.846 4.884-.846 9.876 0 14.76a3.8 3.8 0 0 0 2.69 2.7c2.37.64 11.877.64 11.877.64s9.506 0 11.877-.64c1.315-.36 2.339-1.392 2.688-2.71.846-4.884.846-9.876 0-14.76z" class="B"/><path d="M15.882 365.53v-9.058L23.844 361z" fill="red"/><path d="M19 342h0c-10.493 0-19-8.507-19-19h0c0-10.493 8.507-19 19-19h0c10.493 0 19 8.507 19 19h0c0 10.493-8.507 19-19 19z" fill="#1da1f2"/><path d="M8.893 329.372a11.79 11.79 0 0 0 18.147-10.507 8.42 8.42 0 0 0 2.069-2.154 8.25 8.25 0 0 1-2.382.655 4.16 4.16 0 0 0 1.823-2.3 8.06 8.06 0 0 1-2.633 1 4.15 4.15 0 0 0-7.068 3.8 11.76 11.76 0 0 1-8.549-4.347c-1.101 1.901-.54 4.329 1.283 5.555-.659-.021-1.304-.199-1.88-.52-.026 1.997 1.37 3.732 3.327 4.133a4.14 4.14 0 0 1-1.872.07 4.15 4.15 0 0 0 3.874 2.89 8.32 8.32 0 0 1-6.14 1.716z" class="B"/><path d="M19 304.004h0c-10.493 0-19-8.507-19-19h0c0-10.493 8.507-19 19-19h0c10.493 0 19 8.507 19 19h0c0 10.493-8.507 19-19 19z" fill="#0077b5"/><g class="B"><path d="M10.37 280.763h3.94v12.724h-3.94zm1.95-1.663c.95.007 1.811-.56 2.179-1.436s.172-1.887-.497-2.562-1.679-.879-2.558-.518-1.453 1.217-1.454 2.168a2.35 2.35 0 0 0 2.329 2.348zm8.28 7.707c0-1.788.823-2.854 2.4-2.854 1.448 0 2.144 1.023 2.144 2.854v6.68h3.92v-8.056c0-3.408-1.932-5.056-4.63-5.056a4.435 4.435 0 0 0-3.834 2.1v-1.713h-3.773v12.723H20.6z"/></g><path d="M19 190h0c10.493 0 19 8.507 19 19h0c0 10.493-8.507 19-19 19h0c-10.493 0-19-8.507-19-19h0c0-10.493 8.507-19 19-19z" fill="#3b5998"/><path d="M16.1 220.473h4.632V208.9h3.233l.344-3.874h-3.577v-2.203c0-.914.184-1.275 1.07-1.275h2.507v-4.02H21.1c-3.447 0-5 1.514-5 4.412v3.09h-2.4v3.923h2.4z" class="B"/><path d="M19 266.004h0c-10.493 0-19-8.507-19-19h0c0-10.493 8.507-19 19-19h0c10.493 0 19 8.507 19 19h0c0 10.493-8.507 19-19 19z" fill="#e1306c"/><g class="B"><path d="M19.434 238.446l4.217.06a5.78 5.78 0 0 1 1.937.36 3.45 3.45 0 0 1 1.98 1.98 5.78 5.78 0 0 1 .36 1.937l.06 4.217-.06 4.216a5.78 5.78 0 0 1-.36 1.938 3.45 3.45 0 0 1-1.98 1.98 5.83 5.83 0 0 1-1.937.36l-4.217.06c-2.787 0-3.116-.01-4.216-.06a5.77 5.77 0 0 1-1.94-.359c-.908-.353-1.627-1.072-1.98-1.98a5.83 5.83 0 0 1-.36-1.938l-.06-4.217.06-4.217a5.76 5.76 0 0 1 .359-1.937 3.46 3.46 0 0 1 1.98-1.982 5.79 5.79 0 0 1 1.938-.36l4.216-.06m0-1.88l-4.3.063a7.67 7.67 0 0 0-2.533.485 5.33 5.33 0 0 0-3.05 3.052 7.64 7.64 0 0 0-.485 2.533L9 247l.063 4.3a7.64 7.64 0 0 0 .485 2.533 5.37 5.37 0 0 0 3.05 3.052 7.7 7.7 0 0 0 2.533.485l4.3.062 4.3-.062a7.69 7.69 0 0 0 2.533-.485 5.34 5.34 0 0 0 3.052-3.052 7.59 7.59 0 0 0 .485-2.533l.063-4.3-.063-4.3a7.64 7.64 0 0 0-.485-2.533 5.34 5.34 0 0 0-3.052-3.052 7.59 7.59 0 0 0-2.533-.485l-4.3-.063m0 5.078c-2.559-.001-4.762 1.807-5.261 4.316s.844 5.023 3.208 6.002 5.091.151 6.512-1.977 1.141-4.964-.67-6.772a5.36 5.36 0 0 0-3.786-1.571m0 8.836c-1.663.001-3.095-1.172-3.42-2.803s.547-3.264 2.083-3.9 3.308-.099 4.231 1.284.741 3.225-.435 4.4a3.48 3.48 0 0 1-2.459 1.019m6.822-9.049c.001.599-.422 1.115-1.009 1.232s-1.176-.197-1.405-.75-.036-1.192.462-1.524 1.162-.267 1.585.157a1.25 1.25 0 0 1 .367.885"/></g><rect width="38" height="38" rx="19" fill="#a3c939" y="418"/><g class="B"><use xlink:href="#C"/><use xlink:href="#D"/><use xlink:href="#E"/><use xlink:href="#F"/></g><g class="D"><rect width="38" height="38" rx="19" y="380" class="C"/><g class="B"><path d="M12.162 407.372h1.6v1.6c0 .651.348 1.253.912 1.579s1.259.326 1.824 0 .912-.928.912-1.579v-1.6h3.19v1.6c0 .651.348 1.253.912 1.579s1.259.326 1.824 0 .912-.928.912-1.579v-1.6h1.6v-10.028H12.162zm13.959-19.249a.9.9 0 0 0-.456-.123.91.91 0 0 0-.789.456l-1.367 2.377a6.84 6.84 0 0 0-9 0l-1.388-2.378a.91.91 0 0 0-.789-.456.9.9 0 0 0-.456.123.91.91 0 0 0-.335 1.244l1.693 2.931a6.77 6.77 0 0 0-1.078 3.678H25.83a6.77 6.77 0 0 0-1.078-3.678l1.693-2.931a.91.91 0 0 0-.335-1.244zm-9.739 6.03c-.277 0-.526-.167-.632-.422s-.047-.55.148-.745.49-.254.745-.148.422.355.422.632c0 .378-.306.684-.684.684zm5.242 0c-.277 0-.526-.167-.632-.422s-.047-.55.148-.745.49-.254.745-.148.422.355.422.632c0 .378-.306.684-.684.684zm7.403 3.191c-.755 0-1.367.612-1.367 1.367v4.558a1.37 1.37 0 0 0 1.367 1.367 1.37 1.37 0 0 0 1.368-1.367v-4.558c0-.755-.612-1.367-1.367-1.367zm-20.056 0c-.755 0-1.367.612-1.367 1.367v4.558a1.37 1.37 0 0 0 1.368 1.367 1.37 1.37 0 0 0 1.368-1.367v-4.558c0-.755-.612-1.367-1.367-1.367z"/></g></g><rect width="38" height="38" rx="19" fill="#2196f3" y="494"/><use xlink:href="#G" class="E"/><use xlink:href="#H" class="F"/><use xlink:href="#I" class="B"/><path d="M10.324 524a2.3 2.3 0 0 1-1.983-3.465l.656-1.121.4-.081a4.87 4.87 0 0 1 .948-.1h.109a3.48 3.48 0 0 1 2.545 1.2l.438.5-1.131 1.932A2.31 2.31 0 0 1 10.324 524z" class="E"/><use xlink:href="#J" class="F"/><use xlink:href="#K" class="B"/><use xlink:href="#L" class="E"/><use xlink:href="#M" class="F"/><use xlink:href="#N" class="B"/><g class="D"><path d="M19 456c10.493 0 19 8.507 19 19s-8.507 19-19 19-19-8.507-19-19 8.507-19 19-19z" class="C"/><path d="M8.3 481.914c-.828.017-1.6-.414-2.02-1.129s-.419-1.599 0-2.314 1.192-1.146 2.02-1.129h3.5l4.48-7.645-1.314-2.236a2.3 2.3 0 0 1 1.964-3.496 2.3 2.3 0 0 1 2.005 1.172l.006.011.006-.01a2.3 2.3 0 1 1 3.969 2.326l-5.789 9.879h3.062l.27.271c.214.218.406.456.573.712l.181.3c.444.801.55 1.747.294 2.626l-.194.657H8.3z" class="E"/><path d="M8.3 481.452c-.662.016-1.281-.329-1.617-.9s-.336-1.279 0-1.851.955-.916 1.617-.9h3.76l4.75-8.105-1.45-2.466a1.84 1.84 0 1 1 3.176-1.86l.4.689.4-.688a1.84 1.84 0 0 1 3.21.001 1.84 1.84 0 0 1-.036 1.86l-6.186 10.571h3.673l.134.135c.193.196.365.411.515.642l.17.285a2.96 2.96 0 0 1 .248 2.26l-.1.328z" class="F"/><path d="M20.264 478.834a3.69 3.69 0 0 0-.458-.571H15.52l6.6-11.264a1.38 1.38 0 0 0-2.38-1.4l-.8 1.365-.8-1.366a1.38 1.38 0 0 0-2.406.001 1.38 1.38 0 0 0 .025 1.394l1.583 2.7-5.022 8.57H8.3c-.497-.013-.961.244-1.214.672s-.252.959 0 1.387.717.685 1.214.672h12.32a2.48 2.48 0 0 0-.2-1.894z" class="B"/><path d="M10.324 486a2.3 2.3 0 0 1-1.983-3.465l.656-1.121.4-.081a4.87 4.87 0 0 1 .948-.1h.109a3.48 3.48 0 0 1 2.545 1.2l.438.5-1.131 1.932A2.31 2.31 0 0 1 10.324 486z" class="E"/><path d="M10.324 485.54a1.84 1.84 0 0 1-1.586-2.772l.552-.942.2-.04c.282-.059.57-.089.858-.09h.1a3.02 3.02 0 0 1 2.2 1.039l.219.249-.963 1.646a1.85 1.85 0 0 1-1.58.91z" class="F"/><path d="M10.444 482.155a3.8 3.8 0 0 0-.858.08l-.448.765a1.38 1.38 0 1 0 2.381 1.4l.8-1.359c-.472-.547-1.153-.869-1.875-.886h0z" class="B"/><path d="M27.426 486a2.31 2.31 0 0 1-1.986-1.137l-5.546-9.464-.016-.048c-.382-1.146-.31-2.395.2-3.49l1.536-2.63 4.343 7.412h3.745c.828-.017 1.6.414 2.02 1.129s.419 1.599 0 2.314-1.192 1.146-2.02 1.129h-1.069l.775 1.322a2.3 2.3 0 0 1-1.982 3.463z" class="E"/><path d="M27.426 485.539c-.654 0-1.26-.345-1.592-.909l-5.521-9.42-.016-.048c-.333-1.022-.265-2.132.191-3.106l1.119-1.915 4.083 6.956h4.01c.662-.016 1.281.329 1.617.9s.336 1.279 0 1.851-.955.916-1.617.9h-1.866l1.181 2.015a1.84 1.84 0 0 1-1.585 2.771z" class="F"/><path d="M29.699 477.562h-4.272l-3.816-6.511-.7 1.2c-.405.869-.466 1.859-.17 2.771l5.5 9.377a1.38 1.38 0 0 0 2.38-1.4l-1.587-2.708h2.672c.497.013.961-.244 1.214-.672s.252-.959 0-1.387-.717-.685-1.214-.672z" class="B"/></g></g></svg>